<?xml version="1.0" encoding="UTF-8" standalone="no"?>
<!-- Created with Inkscape (http://www.inkscape.org/) -->

<svg
   width="39.355904mm"
   height="42.07531mm"
   viewBox="0 0 39.355904 42.07531"
   version="1.1"
   id="svg1"
   xml:space="preserve"
   inkscape:export-filename="3dpv2.svg"
   inkscape:export-xdpi="96"
   inkscape:export-ydpi="96"
   xmlns:inkscape="http://www.inkscape.org/namespaces/inkscape"
   xmlns:sodipodi="http://sodipodi.sourceforge.net/DTD/sodipodi-0.dtd"
   xmlns="http://www.w3.org/2000/svg"
   xmlns:svg="http://www.w3.org/2000/svg"><sodipodi:namedview
     id="namedview1"
     pagecolor="#ffffff"
     bordercolor="#000000"
     borderopacity="0.25"
     inkscape:showpageshadow="2"
     inkscape:pageopacity="0.0"
     inkscape:pagecheckerboard="0"
     inkscape:deskcolor="#d1d1d1"
     inkscape:document-units="mm"
     inkscape:zoom="4.1050505"
     inkscape:cx="147.62303"
     inkscape:cy="479.65305"
     inkscape:window-width="2560"
     inkscape:window-height="1329"
     inkscape:window-x="0"
     inkscape:window-y="29"
     inkscape:window-maximized="1"
     inkscape:current-layer="layer1" /><defs
     id="defs1" /><g
     inkscape:label="Layer 1"
     inkscape:groupmode="layer"
     id="layer1"
     transform="translate(-51.609926,-115.99437)"><path
       style="fill:#000000;stroke-width:0.961388"
       d="m 62.043442,153.23989 c -4.957348,-2.64963 -9.332895,-5.01263 -9.723437,-5.25111 -0.673133,-0.41103 -0.710076,-0.53643 -0.710076,-2.41047 0,-1.78228 0.04558,-1.96073 0.463021,-1.81271 0.254661,0.0903 3.754157,1.91782 7.776658,4.06116 4.022501,2.14335 7.390652,3.89698 7.48478,3.89698 0.09413,0 0.136741,-0.95605 0.0947,-2.12456 -0.07645,-2.12457 -0.07645,-2.12457 -1.531656,-2.89516 -0.800364,-0.42383 -3.47927,-1.84868 -5.953124,-3.16635 -2.473855,-1.31765 -5.357086,-2.8485 -6.407181,-3.40188 -1.909264,-1.00614 -1.909264,-1.00614 -1.918229,-3.02364 -0.005,-1.12583 0.102825,-2.0175 0.243975,-2.0175 0.139117,0 0.883257,0.34551 1.653646,0.7678 1.614819,0.88517 2.046354,1.11644 5.634039,3.01957 1.455208,0.77193 3.00302,1.5973 3.439583,1.83416 3.228001,1.7513 4.575701,2.44847 4.73313,2.44847 0.100245,0 0.147862,-0.95341 0.105817,-2.11869 -0.07645,-2.11868 -0.07645,-2.11868 -7.257508,-5.94578 -3.949583,-2.10489 -7.491693,-4.0152 -7.871354,-4.24512 -0.649775,-0.39351 -0.690293,-0.53409 -0.690293,-2.39493 0,-1.78178 0.0457,-1.96083 0.463021,-1.81402 0.857488,0.30166 18.981833,10.00475 19.178233,10.26732 0.25677,0.34325 0.26076,21.1721 0.004,21.15624 -0.10914,-0.006 -4.254442,-2.18015 -9.211791,-4.82978 z"
       id="path1"
       sodipodi:nodetypes="csssssssssssssssssssssccc"
       inkscape:export-filename="3dpv2.svg"
       inkscape:export-xdpi="241.4718"
       inkscape:export-ydpi="241.4718" /><path
       style="fill:#000000;stroke-width:1.43371"
       d="m 72.398671,134.81856 c -0.204134,-0.17754 -1.250245,-0.77661 -2.324664,-1.33127 -1.074418,-0.55463 -3.975379,-2.12056 -6.446542,-3.47983 -2.471178,-1.35928 -5.679801,-3.11497 -7.130281,-3.90153 -1.450481,-0.78654 -2.636062,-1.51995 -2.634645,-1.62979 0.0029,-0.17808 2.820158,-1.76364 8.768948,-4.93412 1.084991,-0.57825 2.993073,-1.61411 4.240173,-2.30189 2.178933,-1.20168 2.422995,-1.25031 6.25121,-1.24549 3.983737,0.006 3.983737,0.006 9.648889,3.0793 5.665153,3.07427 5.665153,3.07427 5.781041,5.31991 0.130094,2.52102 0.28792,2.3592 -4.999651,5.12666 -1.18186,0.61858 -3.994029,2.13634 -6.24926,3.37278 -4.432952,2.43041 -4.358174,2.40105 -4.905218,1.92527 z m 2.679254,-4.95901 c 7.15444,-3.76593 8.084529,-4.38289 8.084529,-5.36263 0,-0.77698 -0.406731,-1.1981 -2.051171,-2.1238 -7.803358,-4.39273 -7.901098,-4.39801 -14.554226,-0.78605 -2.685707,1.45806 -4.883097,2.74767 -4.883097,2.86578 0,0.11819 1.626292,1.10517 3.613967,2.19345 1.987689,1.08828 4.405146,2.44853 5.372137,3.02274 2.135932,1.26838 2.352396,1.27772 4.417861,0.19051 z"
       id="path2"
       sodipodi:nodetypes="sssscssccssssssssssss" /><path
       style="fill:#000000;stroke-width:1.31455"
       d="m 73.937892,147.99683 c 0,-8.37711 -0.09887,-10.6215 0.03574,-10.77744 0.165449,-0.19167 2.133608,-1.14712 3.222682,-1.69596 4.344151,-2.18926 11.502748,-6.16744 12.266186,-6.71694 0.498977,-0.35917 0.923787,-0.54527 1.134186,-0.54527 0.270932,0 0.419715,1.47505 0.353484,5.75943 -0.102829,6.65347 0.828674,5.59955 -11.201795,12.67366 -2.221654,1.30637 -2.221654,1.30637 -2.317971,5.45131 -0.09637,4.14493 -0.09637,4.14493 -1.445827,5.02707 -0.74224,0.48519 -1.506375,0.88215 -1.698106,0.88215 -0.228742,0 -0.348584,-3.45797 -0.348584,-10.05801 z m 8.279511,-6.79216 c 2.495751,-1.48125 4.73,-2.85451 4.964982,-3.05171 0.384625,-0.32278 0.645327,-4.16505 0.282597,-4.16505 -0.216857,0 -9.188046,5.31767 -9.681907,5.73895 -0.395761,0.33759 -0.639605,4.17097 -0.265327,4.17097 0.08901,0 2.203904,-1.21193 4.699655,-2.69316 z"
       id="path3"
       sodipodi:nodetypes="ssssssscssssssssss" /></g></svg>
