<?xml version="1.0" encoding="UTF-8" standalone="no"?>
<!-- Created with Inkscape (http://www.inkscape.org/) -->

<svg
   width="195.2379mm"
   height="189.37975mm"
   viewBox="0 0 195.2379 189.37975"
   version="1.1"
   id="svg1"
   xmlns:inkscape="http://www.inkscape.org/namespaces/inkscape"
   xmlns:sodipodi="http://sodipodi.sourceforge.net/DTD/sodipodi-0.dtd"
   xmlns="http://www.w3.org/2000/svg"
   xmlns:svg="http://www.w3.org/2000/svg">
  <sodipodi:namedview
     id="namedview1"
     pagecolor="#ffffff"
     bordercolor="#000000"
     borderopacity="0.25"
     inkscape:showpageshadow="2"
     inkscape:pageopacity="0.0"
     inkscape:pagecheckerboard="0"
     inkscape:deskcolor="#d1d1d1"
     inkscape:document-units="mm" />
  <defs
     id="defs1" />
  <g
     inkscape:label="Layer 1"
     inkscape:groupmode="layer"
     id="layer1"
     transform="translate(-10.367759,-52.208338)">
    <g
       id="g7"
       transform="matrix(5.5071833,0,0,5.5071833,-99.264021,-953.00884)"
       inkscape:export-filename="g7.png"
       inkscape:export-xdpi="300"
       inkscape:export-ydpi="300">
      <path
         style="fill:#000000"
         d="m 32.853969,216.90759 c -1.77124,-0.1313 -3.419649,-0.68348 -4.823532,-1.61578 -3.426824,-2.27572 -5.067644,-6.34846 -4.171865,-10.35513 0.766872,-3.4301 3.422637,-6.25398 6.804499,-7.23524 0.997023,-0.2893 1.687242,-0.38676 2.739918,-0.38692 1.084472,-1.6e-4 1.800364,0.0991 2.795392,0.38775 3.170929,0.91972 5.721909,3.4858 6.641913,6.68122 0.524969,1.82336 0.523947,3.62967 -0.0031,5.46134 -1.070662,3.72101 -4.292357,6.48552 -8.142417,6.98694 -0.475638,0.0619 -1.473495,0.10305 -1.840817,0.0758 z m 3.904475,-2.40688 c 0.774602,-0.13242 1.740015,-0.50519 2.404987,-0.92861 0.820683,-0.52258 1.573907,-1.29929 2.107418,-2.17315 2.456358,-4.02334 0.62048,-9.93503 -3.857498,-12.42148 -2.55642,-1.41948 -5.493424,-1.385 -7.693909,0.0903 -1.436403,0.96304 -2.467238,2.51827 -2.863021,4.31945 -0.339657,1.54576 -0.239206,3.16133 0.296022,4.76095 0.714433,2.1352 2.198813,4.02743 4.070462,5.18884 0.994422,0.61707 2.275534,1.08055 3.317339,1.20013 0.204902,0.0235 0.434314,0.0499 0.509804,0.0587 0.286071,0.0331 1.282918,-0.0224 1.708396,-0.0951 z m 8.888701,-3.33305 c -0.07062,-0.0431 -0.148091,-0.0783 -0.17216,-0.0783 -0.04505,0 -1.676538,-0.84627 -1.728436,-0.89656 -0.01595,-0.0155 0.023,-0.21 0.08655,-0.43234 0.510672,-1.78663 0.519529,-3.78328 0.02475,-5.57855 -0.192099,-0.69701 -0.375583,-1.17801 -0.708483,-1.85726 -0.501544,-1.02334 -1.073817,-1.84065 -1.862114,-2.65941 -1.143431,-1.18763 -2.48239,-2.05408 -4.041122,-2.61506 -0.365281,-0.13146 -0.610254,-0.20322 -1.205883,-0.35324 -0.166667,-0.042 -0.166667,-0.042 -0.16652,-1.32478 1.35e-4,-1.18082 0.0059,-1.29216 0.07289,-1.40045 0.05962,-0.0964 0.82232,-0.50833 4.225346,-2.282 2.283929,-1.1904 4.410036,-2.29775 4.724682,-2.46079 0.314646,-0.16304 0.616892,-0.29643 0.671658,-0.29643 0.09596,0 0.547548,0.21379 4.619006,2.18672 1.02451,0.49646 2.559805,1.23999 3.411767,1.6523 1.066297,0.51604 1.58274,0.78657 1.657225,0.86811 0.108205,0.11845 0.108205,0.11845 0.09804,6.27018 -0.0099,5.98644 -0.01217,6.15394 -0.08486,6.23426 -0.04108,0.0454 -0.446963,0.28455 -0.901961,0.53148 -6.19948,3.36437 -8.446138,4.57066 -8.512428,4.57054 -0.04375,-8e-5 -0.13733,-0.0354 -0.20795,-0.0784 z m 1.638204,-1.56948 c 0.528431,-0.2859 1.172549,-0.6348 1.431373,-0.77533 0.258824,-0.14053 0.655883,-0.35586 0.882354,-0.47851 0.22647,-0.12265 0.958824,-0.51975 1.627451,-0.88245 1.885204,-1.02265 1.919339,-1.04113 2.637257,-1.42802 l 0.676471,-0.36456 v -5.54487 c 0,-3.04968 -0.01372,-5.54488 -0.03049,-5.54488 -0.01677,0 -0.0653,0.024 -0.107844,0.0533 -0.04254,0.0293 -0.474412,0.27427 -0.959706,0.54434 -1.038482,0.57791 -3.080205,1.71744 -4.705885,2.62645 -0.636275,0.35577 -1.452452,0.81153 -1.813726,1.0128 l -0.656864,0.36593 v 5.48522 c 0,3.01687 0.01324,5.47738 0.02941,5.4678 0.01618,-0.01 0.461765,-0.25134 0.990197,-0.53723 z M 46.84902,197.93787 c 0.552726,-0.3098 1.913781,-1.07104 3.024565,-1.69165 1.110785,-0.62061 2.491668,-1.39251 3.06863,-1.71533 0.576961,-0.32282 1.04902,-0.60085 1.04902,-0.61782 0,-0.017 -0.06618,-0.0578 -0.147059,-0.0908 -0.08088,-0.0329 -0.941177,-0.45151 -1.911766,-0.93014 -4.70989,-2.32258 -6.301436,-3.09689 -6.365478,-3.09689 -0.0384,0 -0.08658,0.015 -0.107074,0.0334 -0.02049,0.0184 -0.293138,0.16621 -0.605883,0.32854 -0.312745,0.16233 -1.071569,0.55926 -1.686275,0.88205 -0.614707,0.3228 -2.207903,1.15676 -3.540436,1.85325 -1.332534,0.6965 -2.412627,1.2772 -2.400207,1.29045 0.01949,0.0208 8.562772,4.30611 8.602354,4.31494 0.0081,0.002 0.466882,-0.2502 1.019609,-0.55999 z m -22.918466,2.95407 c -1.274011,-0.37726 -3.240289,-1.21222 -3.601432,-1.52931 -0.170564,-0.14976 -0.277089,-0.415 -0.249445,-0.62111 0.01433,-0.1068 0.381438,-0.76687 1.227035,-2.2062 2.140578,-3.64358 4.159672,-7.08242 5.937568,-10.11263 0.95544,-1.62843 1.780092,-3.0183 1.83256,-3.08859 0.28248,-0.37848 0.932539,-0.40064 1.251237,-0.0427 0.04507,0.0506 0.572779,0.93028 1.172678,1.95479 0.599898,1.02451 1.376199,2.34804 1.725113,2.94118 0.348914,0.59314 1.063335,1.81079 1.587603,2.70589 0.524268,0.89509 1.0059,1.71505 1.070292,1.82212 0.112447,0.18698 0.114173,0.19671 0.04364,0.24607 -0.04039,0.0283 -0.201642,0.14801 -0.358341,0.2661 -0.156698,0.1181 -0.292675,0.21473 -0.30217,0.21473 -0.0095,0 -0.08717,-0.11912 -0.17261,-0.26471 -0.1366,-0.23276 -2.331135,-4.10364 -2.829119,-4.9902 -0.88377,-1.57337 -1.467749,-2.58235 -1.540278,-2.66124 -0.285285,-0.31031 -0.858765,-0.31671 -1.178343,-0.0131 -0.203688,0.19348 -0.0078,-0.54464 -2.02663,7.63518 -1.63898,6.64065 -1.442191,5.93493 -1.753186,6.28728 -0.348257,0.39457 -0.685889,0.83791 -0.969678,1.27328 -0.140429,0.21544 -0.246947,0.34017 -0.288694,0.33805 -0.03639,-0.002 -0.296397,-0.0715 -0.577802,-0.15486 z"
         id="path7-1-5-7" />
      <path
         style="fill:#000000"
         d="m 32.685695,216.3999 c -1.77124,-0.1313 -3.419649,-0.68348 -4.823532,-1.61578 -3.426824,-2.27572 -5.067644,-6.34846 -4.171865,-10.35513 0.766872,-3.4301 3.422637,-6.25398 6.804499,-7.23524 0.997023,-0.2893 1.687242,-0.38676 2.739918,-0.38692 1.084472,-1.6e-4 1.800364,0.0991 2.795392,0.38775 3.170929,0.91972 5.721909,3.4858 6.641913,6.68122 0.524969,1.82336 0.523947,3.62967 -0.0031,5.46134 -1.070662,3.72101 -4.292357,6.48552 -8.142417,6.98694 -0.475638,0.0619 -1.473495,0.10305 -1.840817,0.0758 z m 3.904475,-2.40688 c 0.774602,-0.13242 1.740015,-0.50519 2.404987,-0.92861 0.820683,-0.52258 1.573907,-1.29929 2.107418,-2.17315 2.456358,-4.02334 0.62048,-9.93503 -3.857498,-12.42148 -2.55642,-1.41948 -5.493424,-1.385 -7.693909,0.0903 -1.436403,0.96304 -2.467238,2.51827 -2.863021,4.31945 -0.339657,1.54576 -0.239206,3.16133 0.296022,4.76095 0.714433,2.1352 2.198813,4.02743 4.070462,5.18884 0.994422,0.61707 2.275534,1.08055 3.317339,1.20013 0.204902,0.0235 0.434314,0.0499 0.509804,0.0587 0.286071,0.0331 1.282918,-0.0224 1.708396,-0.0951 z m 8.888701,-3.33305 c -0.07062,-0.0431 -0.148091,-0.0783 -0.17216,-0.0783 -0.04505,0 -1.676538,-0.84627 -1.728436,-0.89656 -0.01595,-0.0155 0.023,-0.21 0.08655,-0.43234 0.510672,-1.78663 0.519529,-3.78328 0.02475,-5.57855 -0.192099,-0.69701 -0.375583,-1.17801 -0.708483,-1.85726 -0.501544,-1.02334 -1.073817,-1.84065 -1.862114,-2.65941 -1.143431,-1.18763 -2.48239,-2.05408 -4.041122,-2.61506 -0.365281,-0.13146 -0.610254,-0.20322 -1.205883,-0.35324 -0.166667,-0.042 -0.166667,-0.042 -0.16652,-1.32478 1.35e-4,-1.18082 0.0059,-1.29216 0.07289,-1.40045 0.05962,-0.0964 0.82232,-0.50833 4.225346,-2.282 2.283929,-1.1904 4.410036,-2.29775 4.724682,-2.46079 0.314646,-0.16304 0.616892,-0.29643 0.671658,-0.29643 0.09596,0 0.547548,0.21379 4.619006,2.18672 1.02451,0.49646 2.559805,1.23999 3.411767,1.6523 1.066301,0.51604 1.582738,0.78657 1.657215,0.86811 0.10821,0.11845 0.10821,0.11845 0.098,6.27018 -0.01,5.98644 -0.0122,6.15394 -0.0849,6.23426 -0.0411,0.0454 -0.446957,0.28455 -0.901954,0.53148 -6.199477,3.36437 -8.446135,4.57066 -8.512425,4.57054 -0.04375,-8e-5 -0.13733,-0.0354 -0.20795,-0.0784 z m 1.638204,-1.56948 c 0.528431,-0.2859 1.172549,-0.6348 1.431373,-0.77533 0.258824,-0.14053 0.655883,-0.35586 0.882354,-0.47851 0.22647,-0.12265 0.958824,-0.51975 1.627451,-0.88245 1.885204,-1.02265 1.919339,-1.04113 2.637257,-1.42802 l 0.676473,-0.36456 v -5.54487 c 0,-3.04968 -0.0137,-5.54488 -0.0305,-5.54488 -0.0168,0 -0.0653,0.024 -0.10785,0.0533 -0.0425,0.0293 -0.474408,0.27427 -0.959702,0.54434 -1.038482,0.57791 -3.080205,1.71744 -4.705885,2.62645 -0.636275,0.35577 -1.452452,0.81153 -1.813726,1.0128 l -0.656864,0.36593 v 5.48522 c 0,3.01687 0.01324,5.47738 0.02941,5.4678 0.01618,-0.01 0.461765,-0.25134 0.990197,-0.53723 z m -0.436329,-11.66031 c 0.552726,-0.3098 1.913781,-1.07104 3.024565,-1.69165 1.110785,-0.62061 2.491668,-1.39251 3.06863,-1.71533 0.576961,-0.32282 1.04902,-0.60085 1.04902,-0.61782 0,-0.017 -0.06618,-0.0578 -0.147059,-0.0908 -0.08088,-0.0329 -0.941177,-0.45151 -1.911766,-0.93014 -4.70989,-2.32258 -6.301436,-3.09689 -6.365478,-3.09689 -0.0384,0 -0.08658,0.015 -0.107074,0.0334 -0.02049,0.0184 -0.293138,0.16621 -0.605883,0.32854 -0.312745,0.16233 -1.071569,0.55926 -1.686275,0.88205 -0.614707,0.3228 -2.207903,1.15676 -3.540436,1.85325 -1.332534,0.6965 -2.412627,1.2772 -2.400207,1.29045 0.01949,0.0208 8.562772,4.30611 8.602354,4.31494 0.0081,0.002 0.466882,-0.2502 1.019609,-0.55999 z m -22.918466,2.95407 c -1.274011,-0.37726 -3.240289,-1.21222 -3.601432,-1.52931 -0.170564,-0.14976 -0.277089,-0.415 -0.249445,-0.62111 0.01433,-0.1068 0.381438,-0.76687 1.227035,-2.2062 2.140578,-3.64358 4.159672,-7.08242 5.937568,-10.11263 0.95544,-1.62843 1.780092,-3.0183 1.83256,-3.08859 0.28248,-0.37848 0.932539,-0.40064 1.251237,-0.0427 0.04507,0.0506 0.572779,0.93028 1.172678,1.95479 0.599898,1.02451 1.376199,2.34804 1.725113,2.94118 0.348914,0.59314 1.063335,1.81079 1.587603,2.70589 0.524268,0.89509 1.0059,1.71505 1.070292,1.82212 0.112447,0.18698 0.114173,0.19671 0.04364,0.24607 -0.04039,0.0283 -0.201642,0.14801 -0.358341,0.2661 -0.156698,0.1181 -0.292675,0.21473 -0.30217,0.21473 -0.0095,0 -0.08717,-0.11912 -0.17261,-0.26471 -0.1366,-0.23276 -2.331135,-4.10364 -2.829119,-4.9902 -0.88377,-1.57337 -1.467749,-2.58235 -1.540278,-2.66124 -0.285285,-0.31031 -0.858765,-0.31671 -1.178343,-0.0131 -0.203688,0.19348 -0.0078,-0.54464 -2.02663,7.63518 -1.63898,6.64065 -1.442191,5.93493 -1.753186,6.28728 -0.348257,0.39457 -0.685889,0.83791 -0.969678,1.27328 -0.140429,0.21544 -0.246947,0.34017 -0.288694,0.33805 -0.03639,-0.002 -0.296397,-0.0715 -0.577802,-0.15486 z"
         id="path7-1-5-0-3" />
      <path
         style="fill:#000000"
         d="m 32.754451,216.58948 c -1.77124,-0.1313 -3.419649,-0.68348 -4.823532,-1.61578 -3.426824,-2.27572 -5.067644,-6.34846 -4.171865,-10.35513 0.766872,-3.4301 3.422637,-6.25398 6.804499,-7.23524 0.997023,-0.2893 1.687242,-0.38676 2.739918,-0.38692 1.084472,-1.6e-4 1.800364,0.0991 2.795392,0.38775 3.170929,0.91972 5.721909,3.4858 6.641913,6.68122 0.524969,1.82336 0.523947,3.62967 -0.0031,5.46134 -1.070662,3.72101 -4.292357,6.48552 -8.142417,6.98694 -0.475638,0.0619 -1.473495,0.10305 -1.840817,0.0758 z m 3.904475,-2.40688 c 0.774602,-0.13242 1.740015,-0.50519 2.404987,-0.92861 0.820683,-0.52258 1.573907,-1.29929 2.107418,-2.17315 2.456358,-4.02334 0.62048,-9.93503 -3.857498,-12.42148 -2.55642,-1.41948 -5.493424,-1.385 -7.693909,0.0903 -1.436403,0.96304 -2.467238,2.51827 -2.863021,4.31945 -0.339657,1.54576 -0.239206,3.16133 0.296022,4.76095 0.714433,2.1352 2.198813,4.02743 4.070462,5.18884 0.994422,0.61707 2.275534,1.08055 3.317339,1.20013 0.204902,0.0235 0.434314,0.0499 0.509804,0.0587 0.286071,0.0331 1.282918,-0.0224 1.708396,-0.0951 z m 8.888701,-3.33305 c -0.07062,-0.0431 -0.148091,-0.0783 -0.17216,-0.0783 -0.04505,0 -1.676538,-0.84627 -1.728436,-0.89656 -0.01595,-0.0155 0.023,-0.21 0.08655,-0.43234 0.510672,-1.78663 0.519529,-3.78328 0.02475,-5.57855 -0.192099,-0.69701 -0.375583,-1.17801 -0.708483,-1.85726 -0.501544,-1.02334 -1.073817,-1.84065 -1.862114,-2.65941 -1.143431,-1.18763 -2.48239,-2.05408 -4.041122,-2.61506 -0.365281,-0.13146 -0.610254,-0.20322 -1.205883,-0.35324 -0.166667,-0.042 -0.166667,-0.042 -0.16652,-1.32478 1.35e-4,-1.18082 0.0059,-1.29216 0.07289,-1.40045 0.05962,-0.0964 0.82232,-0.50833 4.225346,-2.282 2.283929,-1.1904 4.410036,-2.29775 4.724682,-2.46079 0.314646,-0.16304 0.616892,-0.29643 0.671658,-0.29643 0.09596,0 0.547548,0.21379 4.619006,2.18672 1.02451,0.49646 2.559805,1.23999 3.411767,1.6523 1.066303,0.51604 1.58273,0.78657 1.65721,0.86811 0.10821,0.11845 0.10821,0.11845 0.098,6.27018 -0.01,5.98644 -0.0122,6.15394 -0.0849,6.23426 -0.0411,0.0454 -0.446957,0.28455 -0.901949,0.53148 -6.199477,3.36437 -8.446135,4.57066 -8.512425,4.57054 -0.04375,-8e-5 -0.13733,-0.0354 -0.20795,-0.0784 z m 1.638204,-1.56948 c 0.528431,-0.2859 1.172549,-0.6348 1.431373,-0.77533 0.258824,-0.14053 0.655883,-0.35586 0.882354,-0.47851 0.22647,-0.12265 0.958824,-0.51975 1.627451,-0.88245 1.885204,-1.02265 1.919339,-1.04113 2.637257,-1.42802 l 0.676475,-0.36456 v -5.54487 c 0,-3.04968 -0.0137,-5.54488 -0.0305,-5.54488 -0.0168,0 -0.0653,0.024 -0.107852,0.0533 -0.0425,0.0293 -0.474408,0.27427 -0.959702,0.54434 -1.038482,0.57791 -3.080205,1.71744 -4.705885,2.62645 -0.636275,0.35577 -1.452452,0.81153 -1.813726,1.0128 l -0.656864,0.36593 v 5.48522 c 0,3.01687 0.01324,5.47738 0.02941,5.4678 0.01618,-0.01 0.461765,-0.25134 0.990197,-0.53723 z m -0.436329,-11.66031 c 0.552726,-0.3098 1.913781,-1.07104 3.024565,-1.69165 1.110785,-0.62061 2.491668,-1.39251 3.06863,-1.71533 0.576961,-0.32282 1.04902,-0.60085 1.04902,-0.61782 0,-0.017 -0.06618,-0.0578 -0.147059,-0.0908 -0.08088,-0.0329 -0.941177,-0.45151 -1.911766,-0.93014 -4.70989,-2.32258 -6.301436,-3.09689 -6.365478,-3.09689 -0.0384,0 -0.08658,0.015 -0.107074,0.0334 -0.02049,0.0184 -0.293138,0.16621 -0.605883,0.32854 -0.312745,0.16233 -1.071569,0.55926 -1.686275,0.88205 -0.614707,0.3228 -2.207903,1.15676 -3.540436,1.85325 -1.332534,0.6965 -2.412627,1.2772 -2.400207,1.29045 0.01949,0.0208 8.562772,4.30611 8.602354,4.31494 0.0081,0.002 0.466882,-0.2502 1.019609,-0.55999 z m -22.918466,2.95407 c -1.274011,-0.37726 -3.240289,-1.21222 -3.601432,-1.52931 -0.170564,-0.14976 -0.277089,-0.415 -0.249445,-0.62111 0.01433,-0.1068 0.381438,-0.76687 1.227035,-2.2062 2.140578,-3.64358 4.159672,-7.08242 5.937568,-10.11263 0.95544,-1.62843 1.780092,-3.0183 1.83256,-3.08859 0.28248,-0.37848 0.932539,-0.40064 1.251237,-0.0427 0.04507,0.0506 0.572779,0.93028 1.172678,1.95479 0.599898,1.02451 1.376199,2.34804 1.725113,2.94118 0.348914,0.59314 1.063335,1.81079 1.587603,2.70589 0.524268,0.89509 1.0059,1.71505 1.070292,1.82212 0.112447,0.18698 0.114173,0.19671 0.04364,0.24607 -0.04039,0.0283 -0.201642,0.14801 -0.358341,0.2661 -0.156698,0.1181 -0.292675,0.21473 -0.30217,0.21473 -0.0095,0 -0.08717,-0.11912 -0.17261,-0.26471 -0.1366,-0.23276 -2.331135,-4.10364 -2.829119,-4.9902 -0.88377,-1.57337 -1.467749,-2.58235 -1.540278,-2.66124 -0.285285,-0.31031 -0.858765,-0.31671 -1.178343,-0.0131 -0.203688,0.19348 -0.0078,-0.54464 -2.02663,7.63518 -1.63898,6.64065 -1.442191,5.93493 -1.753186,6.28728 -0.348257,0.39457 -0.685889,0.83791 -0.969678,1.27328 -0.140429,0.21544 -0.246947,0.34017 -0.288694,0.33805 -0.03639,-0.002 -0.296397,-0.0715 -0.577802,-0.15486 z"
         id="path7-1-5-0-9-6" />
    </g>
  </g>
</svg>
